HIERARCHY
ROOT Hips
{
 OFFSET 0.000000 0.000000 0.000000
 CHANNELS 6 Xposition Yposition Zposition Yrotation Xrotation Zrotation
 JOINT Chest
 {
  OFFSET 0.000000 10.080317 -0.001081
  CHANNELS 3 Yrotation Xrotation Zrotation
  JOINT Chest2
  {
   OFFSET 0.000000 11.096852 0.001963
   CHANNELS 3 Yrotation Xrotation Zrotation
   JOINT Chest3
   {
    OFFSET 0.000000 10.026525 0.000000
    CHANNELS 3 Yrotation Xrotation Zrotation
    JOINT Chest4
    {
     OFFSET 0.000000 10.026525 0.000000
     CHANNELS 3 Yrotation Xrotation Zrotation
     JOINT Neck
     {
      OFFSET 0.000000 14.108171 0.000000
      CHANNELS 3 Yrotation Xrotation Zrotation
      JOINT Head
      {
       OFFSET 0.000000 9.333493 0.004668
       CHANNELS 3 Yrotation Xrotation Zrotation
       End Site
       {
        OFFSET 0.000000 17.851786 0.002438
       }
      }
     }
     JOINT RightCollar
     {
      OFFSET -3.071622 7.873185 0.000000
      CHANNELS 3 Yrotation Xrotation Zrotation
      JOINT RightShoulder
      {
       OFFSET -14.378659 0.000000 0.000000
       CHANNELS 3 Yrotation Xrotation Zrotation
       JOINT RightElbow
       {
        OFFSET -30.778728 0.000000 0.000000
        CHANNELS 3 Yrotation Xrotation Zrotation
        JOINT RightWrist
        {
         OFFSET -25.164217 0.000000 0.000000
         CHANNELS 3 Yrotation Xrotation Zrotation
         End Site
         {
          OFFSET -18.796788 0.000000 0.000000
         }
        }
       }
      }
     }
     JOINT LeftCollar
     {
      OFFSET 3.071622 7.873185 0.000000
      CHANNELS 3 Yrotation Xrotation Zrotation
      JOINT LeftShoulder
      {
       OFFSET 14.378659 0.000000 0.000000
       CHANNELS 3 Yrotation Xrotation Zrotation
       JOINT LeftElbow
       {
        OFFSET 30.778728 0.000000 0.000000
        CHANNELS 3 Yrotation Xrotation Zrotation
        JOINT LeftWrist
        {
         OFFSET 25.164217 0.000000 0.000000
         CHANNELS 3 Yrotation Xrotation Zrotation
         End Site
         {
          OFFSET 18.796788 0.000000 0.000000
         }
        }
       }
      }
     }
    }
   }
  }
 }
 JOINT RightHip
 {
  OFFSET -8.194923 0.005295 0.000540
  CHANNELS 3 Yrotation Xrotation Zrotation
  JOINT RightKnee
  {
   OFFSET 0.000000 -42.473320 -0.000511
   CHANNELS 3 Yrotation Xrotation Zrotation
   JOINT RightAnkle
   {
    OFFSET 0.000000 -41.474259 -0.000865
    CHANNELS 3 Yrotation Xrotation Zrotation
    JOINT RightToe
    {
     OFFSET 0.000000 -7.354994 16.712725
     CHANNELS 3 Yrotation Xrotation Zrotation
     End Site
     {
      OFFSET 0.000000 -1.553903 6.764158
     }
    }
   }
  }
 }
 JOINT LeftHip
 {
  OFFSET 8.194923 0.005295 0.000540
  CHANNELS 3 Yrotation Xrotation Zrotation
  JOINT LeftKnee
  {
   OFFSET 0.000000 -42.473320 -0.000511
   CHANNELS 3 Yrotation Xrotation Zrotation
   JOINT LeftAnkle
   {
    OFFSET 0.000000 -41.474259 -0.000865
    CHANNELS 3 Yrotation Xrotation Zrotation
    JOINT LeftToe
    {
     OFFSET 0.000000 -7.354994 16.712725
     CHANNELS 3 Yrotation Xrotation Zrotation
     End Site
     {
      OFFSET 0.000000 -1.553903 6.764158
     }
    }
   }
  }
 }
}
MOTION
Frames: 8
Frame Time: 0.016667
349.834533 92.202639 -341.703914 8.265057 -4.058566 5.543254 -1.124827 9.850963 5.895352 -1.927226 3.004429 2.240951 -1.927226 3.004429 2.240951 -1.456137 2.246319 1.689829 8.994518 21.926109 0.455308 16.138425 4.914720 -1.662320 8.220906 -12.824192 -1.806647 6.154083 -33.950454 16.889687 78.200024 -18.037342 9.473286 11.272725 -9.196895 -46.383689 -5.366857 -6.160267 -9.312720 -4.397545 -24.051503 -54.469239 -76.733180 -22.553023 -59.077701 -0.809485 9.130862 14.321416 1.661882 -6.406420 -6.429954 6.169610 8.983699 0.233853 -2.749410 1.122713 3.302423 0.220217 1.956115 -0.507863 18.180490 13.196185 4.838628 12.956926 14.519158 -6.598080 1.266914 -10.686138 -8.659288 -3.585429 -2.288836 -1.387964
349.822553 92.104111 -341.800599 4.965051 -3.746702 5.633731 -0.963825 10.361558 5.611403 -1.967915 3.120976 2.174597 -1.967915 3.120976 2.174597 -1.486708 2.333796 1.640623 10.014381 21.924395 -0.007976 18.110384 5.076853 -2.765032 7.548514 -11.980366 -1.689874 5.747808 -29.866128 19.654150 76.067941 -15.953026 11.492641 10.462063 -8.901007 -46.553426 -5.572614 -5.755283 -9.276007 -4.346744 -24.383635 -54.219709 -77.124662 -22.606067 -58.571196 -1.151271 9.040547 14.655278 2.637056 -7.329137 -6.223316 7.386819 9.485333 0.448302 -1.846433 1.201686 3.649560 0.208713 2.099238 -0.775129 19.117660 13.176202 4.600986 14.061635 15.267415 -6.946259 2.132063 -10.996359 -8.487852 -3.913385 -2.304342 -1.579666
349.813354 92.003724 -341.884440 1.723429 -3.393049 5.687764 -0.812600 10.809600 5.260046 -1.996579 3.218523 2.096320 -1.996579 3.218523 2.096320 -1.508111 2.407110 1.582370 10.989905 21.914520 -0.395517 19.980502 5.232651 -3.715334 7.147974 -10.972307 -1.203371 5.636168 -26.156889 22.261454 72.832925 -13.411867 13.714702 9.684347 -8.877631 -46.536566 -5.787644 -5.353989 -9.236634 -4.336893 -24.819539 -53.974940 -77.350522 -22.619341 -58.162443 -1.502484 9.014662 14.961879 3.538662 -8.225404 -5.979697 8.438608 9.887676 0.617575 -0.820842 1.257975 4.186584 0.182413 2.291995 -1.124043 20.066045 13.085371 4.374991 15.188966 16.041718 -7.248473 2.933805 -11.339535 -8.363240 -4.182074 -2.685350 -0.521278
349.824171 91.866609 -341.921598 -1.435062 -3.077390 5.744259 -0.638777 11.238256 4.827761 -2.005854 3.303113 2.026034 -2.005854 3.303113 2.026034 -1.514954 2.470751 1.529976 11.878007 21.897138 -0.717789 21.674310 5.372922 -4.521996 7.044263 -10.004403 -0.478126 5.452864 -23.080880 24.600897 68.307242 -10.567574 16.466562 8.887294 -9.091198 -46.073777 -6.064153 -4.938384 -9.239255 -4.474434 -25.280941 -53.722762 -77.529411 -22.495247 -57.730028 -1.712003 9.006104 15.235765 4.313799 -9.009306 -5.765279 9.364910 10.180913 0.806526 0.303531 1.415690 4.854542 0.157335 2.396701 -1.519993 21.148724 13.061023 4.186016 16.077549 16.762082 -7.551722 3.737014 -11.723540 -8.255851 -4.454439 -3.035330 0.284448
349.917247 91.762723 -341.958812 -4.209530 -2.549988 5.694630 -0.660469 11.387977 4.429806 -1.993996 3.381564 1.949700 -1.993996 3.381564 1.949700 -1.505880 2.529877 1.472913 12.649046 21.834595 -0.983944 23.144947 5.419025 -5.202051 7.021011 -9.177066 0.413113 5.435293 -20.306873 26.995918 62.567982 -7.440135 18.846360 8.006887 -9.440094 -44.998059 -6.384263 -4.528560 -9.165024 -4.746129 -25.807002 -53.621594 -77.706895 -22.177261 -57.211860 -1.739174 8.995593 15.376658 4.695363 -10.012628 -5.386873 10.175637 10.406444 1.000480 1.519192 1.597151 5.597406 0.069646 2.508143 -1.988518 21.892196 12.778631 3.946026 16.884378 17.452209 -7.830924 4.349096 -12.069214 -8.175841 -4.559555 -3.497269 0.962714
349.923350 91.671656 -341.942098 -7.060362 -2.275040 5.586643 -0.427759 11.704393 4.078053 -1.966617 3.432978 1.885822 -1.966617 3.432978 1.885822 -1.485142 2.568728 1.425019 13.260191 21.748156 -1.204720 24.317062 5.399207 -5.763231 7.005277 -8.402868 1.349926 5.698056 -17.820258 29.584213 55.747493 -3.949018 20.276224 6.019685 -10.241190 -42.436106 -6.787355 -4.133195 -9.112937 -5.030548 -26.205894 -53.669809 -78.006016 -21.686442 -56.634421 -1.668020 9.044355 15.368457 5.148257 -10.654626 -5.174404 10.870902 10.657001 1.205921 2.732937 1.495656 6.607862 0.046407 2.715492 -2.416040 22.728146 12.742863 3.860171 17.775737 18.081687 -8.045939 5.063194 -12.332876 -8.128272 -4.888137 -4.007972 1.425023
350.015822 91.582528 -341.915201 -9.446677 -1.821772 5.374622 -0.380842 11.739111 3.838646 -1.924968 3.468695 1.847241 -1.924968 3.468695 1.847241 -1.453796 2.595764 1.395961 13.708743 21.627913 -1.428440 25.200457 5.299420 -6.295035 6.950790 -7.704716 2.348896 5.906943 -15.548978 32.466073 48.071890 -0.798813 20.228240 2.692120 -11.183607 -38.734993 -7.209252 -3.819994 -9.041680 -5.367655 -26.508944 -53.996945 -78.360844 -20.981200 -56.054320 -1.679083 9.102367 15.303791 5.242262 -11.501954 -4.741319 11.463871 10.906851 1.380517 3.953403 1.445591 7.562508 -0.031784 2.870796 -2.817503 23.274315 12.492218 3.798251 18.470219 18.674915 -8.318987 5.499941 -12.668289 -8.141666 -4.970047 -4.472549 1.910614
350.064313 91.500331 -341.846791 -11.746013 -1.572754 5.203304 -0.166565 11.891551 3.641658 -1.872217 3.480786 1.841160 -1.872217 3.480786 1.841160 -1.414243 2.605008 1.391135 14.025750 21.490155 -1.695136 25.860682 5.160244 -6.874770 6.881712 -6.909116 3.413985 6.278254 -13.581211 35.296159 39.679802 0.834544 19.076204 -1.090812 -10.944199 -35.948480 -7.634340 -3.586515 -9.032310 -5.879492 -26.715660 -54.511047 -78.620609 -20.123797 -55.438402 -1.726347 9.177811 15.261127 5.363855 -12.086992 -4.420784 12.056120 11.184141 1.530672 4.993431 1.300107 8.637675 -0.081087 3.007754 -3.156205 23.880625 12.405052 3.793675 19.022668 19.271520 -8.566076 6.051204 -12.941052 -8.155017 -5.214764 -4.949153 2.260180
